<?xml version="1.0" encoding="UTF-8" standalone="no"?>
<!-- Created with Inkscape (http://www.inkscape.org/) -->
<svg
   xmlns:dc="http://purl.org/dc/elements/1.1/"
   xmlns:cc="http://creativecommons.org/ns#"
   xmlns:rdf="http://www.w3.org/1999/02/22-rdf-syntax-ns#"
   xmlns:svg="http://www.w3.org/2000/svg"
   xmlns="http://www.w3.org/2000/svg"
   xmlns:sodipodi="http://sodipodi.sourceforge.net/DTD/sodipodi-0.dtd"
   xmlns:inkscape="http://www.inkscape.org/namespaces/inkscape"
   width="1300"
   height="350"
   id="svg3205"
   sodipodi:version="0.32"
   inkscape:version="0.46"
   sodipodi:docname="openmrs-logo.svg"
   inkscape:output_extension="org.inkscape.output.svg.inkscape"
   version="1.0"
   inkscape:export-filename="/Users/burke/Desktop/openmrs-logo.png"
   inkscape:export-xdpi="14.12"
   inkscape:export-ydpi="14.12">
  <defs
     id="defs3207">
    <inkscape:perspective
       sodipodi:type="inkscape:persp3d"
       inkscape:vp_x="0 : 526.18109 : 1"
       inkscape:vp_y="0 : 1000 : 0"
       inkscape:vp_z="744.09448 : 526.18109 : 1"
       inkscape:persp3d-origin="372.04724 : 350.78739 : 1"
       id="perspective3213" />
    <filter
       inkscape:collect="always"
       id="filter3730"
       x="-0.15777102"
       width="1.315542"
       y="-0.096820727"
       height="1.1936415">
      <feGaussianBlur
         inkscape:collect="always"
         stdDeviation="5.4007812"
         id="feGaussianBlur3732" />
    </filter>
    <filter
       inkscape:collect="always"
       id="filter3740"
       x="-0.096820734"
       width="1.1936415"
       y="-0.15777101"
       height="1.315542">
      <feGaussianBlur
         inkscape:collect="always"
         stdDeviation="5.4007815"
         id="feGaussianBlur3742" />
    </filter>
    <filter
       inkscape:collect="always"
       id="filter3746"
       x="-0.15777102"
       width="1.315542"
       y="-0.096820727"
       height="1.1936415">
      <feGaussianBlur
         inkscape:collect="always"
         stdDeviation="5.4007812"
         id="feGaussianBlur3748" />
    </filter>
    <filter
       inkscape:collect="always"
       id="filter3764"
       x="-0.096820734"
       width="1.1936415"
       y="-0.15777101"
       height="1.315542">
      <feGaussianBlur
         inkscape:collect="always"
         stdDeviation="5.4007815"
         id="feGaussianBlur3766" />
    </filter>
    <filter
       inkscape:collect="always"
       id="filter3828">
      <feGaussianBlur
         inkscape:collect="always"
         stdDeviation="6.2801719"
         id="feGaussianBlur3830" />
    </filter>
    <filter
       inkscape:collect="always"
       id="filter3832"
       x="-0.013499789"
       width="1.0269996"
       y="-0.1080135"
       height="1.216027">
      <feGaussianBlur
         inkscape:collect="always"
         stdDeviation="3.8137879"
         id="feGaussianBlur3834" />
    </filter>
  </defs>
  <sodipodi:namedview
     id="base"
     pagecolor="#ffffff"
     bordercolor="#666666"
     borderopacity="1.0"
     gridtolerance="10000"
     guidetolerance="10"
     objecttolerance="10"
     inkscape:pageopacity="0.0"
     inkscape:pageshadow="2"
     inkscape:zoom="0.59716797"
     inkscape:cx="590.96748"
     inkscape:cy="171.49057"
     inkscape:document-units="px"
     inkscape:current-layer="layer2"
     showgrid="false"
     inkscape:window-width="1320"
     inkscape:window-height="755"
     inkscape:window-x="20"
     inkscape:window-y="42" />
  <metadata
     id="metadata3210">
    <rdf:RDF>
      <cc:Work
         rdf:about="">
        <dc:format>image/svg+xml</dc:format>
        <dc:type
           rdf:resource="http://purl.org/dc/dcmitype/StillImage" />
      </cc:Work>
    </rdf:RDF>
  </metadata>
  <g
     inkscape:label="Layer 1"
     inkscape:groupmode="layer"
     id="layer1"
     style="display:inline"
     transform="translate(-17.454364,-15.328521)" />
  <g
     inkscape:groupmode="layer"
     id="layer2"
     inkscape:label="Lighting"
     style="display:inline"
     transform="translate(-17.454364,-15.328521)">
    <g
       id="g2517"
       transform="translate(10.590936,23.473969)">
      <text
         xml:space="preserve"
         style="font-size:53.47397614px;font-style:normal;font-variant:normal;font-weight:normal;font-stretch:normal;fill:#b3b3b3;fill-opacity:1;stroke:#b3b3b3;stroke-width:1px;stroke-linecap:butt;stroke-linejoin:miter;stroke-opacity:1;display:inline;filter:url(#filter3832);font-family:Avenir LT Std 55 Roman;-inkscape-font-specification:Avenir LT Std 55 Roman"
         x="588.04944"
         y="310.94025"
         id="text3776"><tspan
           sodipodi:role="line"
           id="tspan3778"
           x="588.04944"
           y="310.94025">MEDICAL RECORD SYSTEM</tspan></text>
      <text
         xml:space="preserve"
         style="font-size:200px;font-style:normal;font-variant:normal;font-weight:normal;font-stretch:normal;fill:#b3b3b3;fill-opacity:1;stroke:#b3b3b3;stroke-width:1px;stroke-linecap:butt;stroke-linejoin:miter;stroke-opacity:1;display:inline;filter:url(#filter3828);font-family:Avenir LT Std 55 Roman;-inkscape-font-specification:Avenir LT Std 55 Roman"
         x="358.53812"
         y="237.27167"
         id="text3768"><tspan
           sodipodi:role="line"
           id="tspan3770"
           x="358.53812"
           y="237.27167">OpenMRS</tspan></text>
      <path
         sodipodi:nodetypes="csccscc"
         style="fill:#b3b3b3;fill-opacity:1;stroke:#b3b3b3;stroke-width:1;stroke-miterlimit:4;stroke-dasharray:none;stroke-opacity:1;display:inline;filter:url(#filter3764)"
         d="M 247.35583,34.172381 C 227.09251,24.974831 204.60953,19.828621 180.91832,19.828621 C 157.24139,19.828621 134.73464,24.954021 114.48083,34.141121 L 114.48083,100.98488 C 132.49915,85.983841 155.66067,76.953621 180.91832,76.953621 C 206.176,76.953621 229.33751,85.983841 247.35583,100.98488 L 247.35583,34.172381 z"
         id="path3750" />
      <path
         id="path3744"
         d="M 46.298264,102.35494 C 37.100714,122.61825 31.954514,145.10124 31.954514,168.79244 C 31.954514,192.46938 37.079904,214.97613 46.267014,235.22994 L 113.11076,235.22994 C 98.109724,217.21162 89.079514,194.0501 89.079514,168.79244 C 89.079514,143.53477 98.109724,120.37326 113.11076,102.35494 L 46.298264,102.35494 z"
         style="fill:#b3b3b3;fill-opacity:1;stroke:#b3b3b3;stroke-width:1;stroke-miterlimit:4;stroke-dasharray:none;stroke-opacity:1;display:inline;filter:url(#filter3746)"
         sodipodi:nodetypes="csccscc" />
      <path
         sodipodi:nodetypes="csccscc"
         id="path3734"
         d="M 247.3799,236.63246 C 229.36118,251.63491 206.20136,260.66371 180.94239,260.66371 C 155.68343,260.66372 132.52362,251.63491 114.5049,236.63246 L 114.5049,303.50746 C 134.7587,312.69458 157.26547,317.78872 180.94239,317.78872 C 204.6336,317.78872 227.11658,312.67376 247.3799,303.47622 L 247.3799,236.63246 z"
         style="fill:#b3b3b3;fill-opacity:1;stroke:#b3b3b3;stroke-width:1;stroke-miterlimit:4;stroke-dasharray:none;stroke-opacity:1;display:inline;filter:url(#filter3740)" />
      <path
         style="fill:#b3b3b3;fill-opacity:1;stroke:#b3b3b3;stroke-width:1;stroke-miterlimit:4;stroke-dasharray:none;stroke-opacity:1;display:inline;filter:url(#filter3730)"
         d="M 248.81794,102.42292 C 263.82038,120.44164 272.84919,143.60145 272.84919,168.86042 C 272.8492,194.11938 263.82038,217.2792 248.81794,235.29792 L 315.69294,235.29792 C 324.88005,215.04412 329.97419,192.53735 329.97419,168.86042 C 329.97419,145.16922 324.85924,122.68623 315.66169,102.42292 L 248.81794,102.42292 z"
         id="path3280"
         sodipodi:nodetypes="csccscc" />
      <path
         sodipodi:nodetypes="csccscc"
         id="rect3732"
         d="M 244.81794,98.422921 C 259.82038,116.44164 268.84919,139.60145 268.84919,164.86042 C 268.8492,190.11938 259.82038,213.2792 244.81794,231.29792 L 311.69294,231.29792 C 320.88005,211.04412 325.97419,188.53735 325.97419,164.86042 C 325.97419,141.16922 320.85924,118.68623 311.66169,98.422921 L 244.81794,98.422921 z"
         style="fill:#007966;fill-opacity:1;stroke:#007966;stroke-width:1;stroke-miterlimit:4;stroke-dasharray:none;stroke-opacity:1;display:inline" />
      <path
         sodipodi:nodetypes="csccscc"
         style="fill:#433b80;fill-opacity:1;stroke:#433b80;stroke-width:1;stroke-miterlimit:4;stroke-dasharray:none;stroke-opacity:1;display:inline"
         d="M 42.298264,98.354941 C 33.100714,118.61825 27.954514,141.10124 27.954514,164.79244 C 27.954514,188.46938 33.079904,210.97613 42.267014,231.22994 L 109.11076,231.22994 C 94.109724,213.21162 85.079514,190.0501 85.079514,164.79244 C 85.079514,139.53477 94.109724,116.37326 109.11076,98.354941 L 42.298264,98.354941 z"
         id="path2441" />
      <path
         style="fill:#ea900e;fill-opacity:1;stroke:#ea900e;stroke-width:1;stroke-miterlimit:4;stroke-dasharray:none;stroke-opacity:1;display:inline"
         d="M 243.3799,232.63246 C 225.36118,247.63491 202.20136,256.66371 176.94239,256.66371 C 151.68343,256.66372 128.52362,247.63491 110.5049,232.63246 L 110.5049,299.50746 C 130.7587,308.69458 153.26547,313.78872 176.94239,313.78872 C 200.6336,313.78872 223.11658,308.67376 243.3799,299.47622 L 243.3799,232.63246 z"
         id="path2443"
         sodipodi:nodetypes="csccscc" />
      <path
         id="path2445"
         d="M 243.35583,30.172381 C 223.09251,20.974831 200.60953,15.828621 176.91832,15.828621 C 153.24139,15.828621 130.73464,20.954021 110.48083,30.141121 L 110.48083,96.984881 C 128.49915,81.983841 151.66067,72.953621 176.91832,72.953621 C 202.176,72.953621 225.33751,81.983841 243.35583,96.984881 L 243.35583,30.172381 z"
         style="fill:#ef410f;fill-opacity:1;stroke:#ef410f;stroke-width:1;stroke-miterlimit:4;stroke-dasharray:none;stroke-opacity:1;display:inline"
         sodipodi:nodetypes="csccscc" />
      <text
         id="text3265"
         y="233.27167"
         x="354.53812"
         style="font-size:200px;font-style:normal;font-variant:normal;font-weight:normal;font-stretch:normal;fill:#000000;fill-opacity:1;stroke:none;stroke-width:1px;stroke-linecap:butt;stroke-linejoin:miter;stroke-opacity:1;display:inline;font-family:Avenir LT Std 55 Roman;-inkscape-font-specification:Avenir LT Std 55 Roman"
         xml:space="preserve"><tspan
           y="233.27167"
           x="354.53812"
           id="tspan3267"
           sodipodi:role="line">OpenMRS</tspan></text>
      <text
         id="text3269"
         y="306.94025"
         x="584.04944"
         style="font-size:53.47397614px;font-style:normal;font-variant:normal;font-weight:normal;font-stretch:normal;fill:#000000;fill-opacity:1;stroke:none;stroke-width:1px;stroke-linecap:butt;stroke-linejoin:miter;stroke-opacity:1;display:inline;font-family:Avenir LT Std 55 Roman;-inkscape-font-specification:Avenir LT Std 55 Roman"
         xml:space="preserve"><tspan
           y="306.94025"
           x="584.04944"
           id="tspan3271"
           sodipodi:role="line">MEDICAL RECORD SYSTEM</tspan></text>
      <path
         id="path3273"
         d="M 437.92311,88.078521 C 406.89122,88.078521 382.12682,104.54947 370.73561,129.79727 C 376.17119,131.72763 381.87044,133.60249 387.76686,135.45352 C 396.55401,116.54503 414.66521,103.67227 437.92311,103.67227 C 470.36091,103.67228 492.87547,128.68046 493.89186,160.23477 C 499.79608,161.26032 505.82643,162.26731 511.92311,163.23477 C 511.92527,162.98286 511.92311,162.73746 511.92311,162.48477 C 511.92309,119.6848 480.92307,88.078521 437.92311,88.078521 z M 1228.7669,88.078521 C 1203.9669,88.078521 1180.5794,101.6598 1180.5794,128.85977 C 1180.5794,135.39445 1181.7507,140.79578 1183.8607,145.32852 C 1190.3171,143.69826 1196.5804,142.00874 1202.6419,140.29727 C 1199.7366,136.82341 1198.5794,132.74865 1198.5794,127.48477 C 1198.5794,110.68477 1213.9669,103.67227 1228.7669,103.67227 C 1238.9669,103.67228 1248.9794,107.67228 1254.5794,116.67227 L 1268.3607,104.67227 C 1257.9607,92.472291 1244.5669,88.078521 1228.7669,88.078521 z M 883.86066,91.672271 L 883.86066,182.67227 C 889.49086,182.46803 895.07346,182.19956 900.64186,181.95352 L 900.64186,114.48477 L 901.04806,114.48477 L 929.29806,180.48477 C 935.17466,180.14348 941.00336,179.80976 946.79806,179.42227 L 908.86066,91.672271 L 883.86066,91.672271 z M 1005.6419,91.672271 L 968.07936,177.89102 C 974.23426,177.41133 980.34306,176.89115 986.39186,176.35977 L 1012.8607,114.48477 L 1013.2669,114.48477 L 1013.2669,173.79727 C 1018.9162,173.21421 1024.5082,172.61293 1030.0481,171.98477 L 1030.0481,91.672271 L 1005.6419,91.672271 z M 1065.1107,91.672271 L 1065.1107,167.60977 C 1095.8045,163.41955 1124.4826,158.50381 1150.6731,152.98477 C 1155.2338,147.01623 1157.7044,139.51703 1157.7044,130.67227 C 1157.7044,95.672311 1128.6981,91.672271 1101.2981,91.672271 L 1065.1107,91.672271 z M 1081.8919,107.26602 L 1105.5169,107.26602 C 1121.9169,107.26602 1139.7044,110.27229 1139.7044,130.67227 C 1139.7044,154.07225 1115.4919,154.07852 1096.8919,154.07852 L 1081.8919,154.07852 L 1081.8919,107.26602 z M 584.92311,137.26602 C 571.32315,137.26602 559.92935,143.26603 551.32936,153.26602 L 550.92311,153.26602 L 550.92311,139.67227 L 535.32936,139.67227 L 535.32936,166.73477 C 541.70961,167.63406 548.20868,168.49238 554.76686,169.32852 C 560.02544,158.68461 570.41905,151.67227 584.14186,151.67227 C 600.55435,151.67227 612.22159,161.7089 616.01686,175.98477 C 621.76896,176.50384 627.573,176.98133 633.42311,177.45352 C 629.67427,153.78108 611.10746,137.26602 584.92311,137.26602 z M 700.98566,137.26602 C 675.82816,137.26602 656.68261,154.05242 653.48561,178.98477 C 683.07626,181.06096 713.78846,182.54185 745.36066,183.35977 C 744.26816,154.13987 726.55136,137.26602 700.98566,137.26602 z M 815.73566,137.26602 C 800.33556,137.26602 788.71686,145.87853 784.51686,155.07852 L 784.14186,155.07852 C 784.14186,149.87854 783.73566,144.67227 783.73566,139.67227 L 768.92306,139.67227 C 768.92306,145.87227 769.73566,153.25978 769.73566,161.85977 L 769.73566,183.85977 C 774.94276,183.93735 780.17526,183.97448 785.42306,184.01602 C 786.39246,164.62393 795.30036,151.67227 814.32936,151.67227 C 828.92936,151.67228 835.73566,161.47854 835.73566,177.07852 L 835.73566,183.85977 C 840.95406,183.7849 846.15396,183.68905 851.32936,183.57852 L 851.32936,175.48477 C 851.32936,152.88478 840.33556,137.26602 815.73566,137.26602 z M 700.39186,151.67227 C 717.59176,151.67228 728.01066,162.27854 728.61066,178.07852 L 669.79806,178.07852 C 671.79806,162.27855 683.19186,151.67227 700.39186,151.67227 z"
         style="opacity:0.2;fill:#ffffff;fill-opacity:1;stroke:#ffffff;stroke-width:0.97760063;stroke-miterlimit:4;stroke-dasharray:none;stroke-opacity:1" />
      <path
         id="path3836"
         d="M 739.48566,268.10977 C 730.08426,268.10978 722.94036,274.2692 720.86066,282.79727 C 722.49416,282.86871 724.17736,282.94623 725.82936,283.01602 C 727.68126,276.95797 732.79346,272.29727 739.48566,272.29727 C 743.12186,272.29726 746.70846,273.84301 748.95436,276.89102 L 752.86066,274.04727 C 749.65216,269.87631 744.61906,268.10977 739.48566,268.10977 z M 920.70436,268.10977 C 909.86846,268.10978 902.05376,276.29382 901.51686,286.85977 C 903.11216,286.8671 904.69736,286.885 906.29806,286.89102 C 906.80576,279.06156 912.63546,272.29727 920.70436,272.29727 C 924.34066,272.29726 927.92716,273.84301 930.17306,276.89102 L 934.07936,274.04727 C 930.87096,269.87631 925.83786,268.10977 920.70436,268.10977 z M 958.82936,268.10977 C 947.71306,268.10978 939.63586,276.02392 939.11066,286.89102 C 940.70216,286.88801 942.30546,286.89532 943.89186,286.89102 C 944.39046,278.70285 950.33666,272.29727 958.82936,272.29727 C 967.26846,272.29726 973.17186,278.62084 973.73566,286.73477 C 975.34186,286.72201 976.94826,286.71761 978.54806,286.70352 C 977.94006,275.93203 969.88236,268.10977 958.82936,268.10977 z M 1084.0169,268.10977 C 1077.3861,268.10978 1071.1419,271.74357 1071.1419,279.01602 C 1071.1419,281.59499 1071.8177,283.52909 1072.9857,285.01602 C 1075.8465,284.93734 1078.6623,284.84918 1081.4857,284.76602 C 1077.354,283.18059 1075.9544,281.59654 1075.9544,278.64102 C 1075.9544,274.1492 1080.0598,272.29727 1084.0169,272.29727 C 1086.7441,272.29726 1089.4259,273.35969 1090.9231,275.76602 L 1094.6107,272.54727 C 1091.83,269.28535 1088.2413,268.10977 1084.0169,268.10977 z M 1145.5169,268.10977 C 1138.8861,268.10978 1132.6419,271.74357 1132.6419,279.01602 C 1132.6419,280.5122 1132.8782,281.79489 1133.2981,282.89102 C 1135.2581,282.80655 1137.1774,282.72783 1139.1107,282.64102 C 1137.9243,281.59074 1137.4544,280.34678 1137.4544,278.64102 C 1137.4544,274.1492 1141.5598,272.29727 1145.5169,272.29727 C 1148.2441,272.29726 1150.9259,273.35969 1152.4231,275.76602 L 1156.1107,272.54727 C 1153.3301,269.28535 1149.7413,268.10977 1145.5169,268.10977 z M 588.76686,269.07852 L 588.76686,272.54727 C 591.48788,272.95128 594.40199,273.34272 597.45436,273.73477 L 595.45436,269.07852 L 588.76686,269.07852 z M 621.32936,269.07852 L 618.29811,276.07852 C 619.74681,276.22158 621.17839,276.34386 622.67311,276.48477 L 623.23561,275.17227 L 623.36061,275.17227 L 623.36061,276.54727 C 624.81915,276.68383 626.32814,276.81903 627.82936,276.95352 L 627.82936,269.07852 L 621.32936,269.07852 z M 637.20436,269.07852 L 637.20436,277.76602 C 638.70576,277.88926 640.1664,278.01975 641.70436,278.14102 L 641.70436,273.26602 L 661.01686,273.26602 L 661.01686,269.07852 L 637.20436,269.07852 z M 668.26686,269.07852 L 668.26686,280.01602 C 669.74166,280.10996 671.26786,280.20493 672.76686,280.29727 L 672.76686,273.26602 L 681.32936,273.26602 C 687.91956,273.26602 693.28696,275.79681 695.48566,281.57852 C 697.14296,281.66515 698.83596,281.77496 700.51686,281.85977 C 697.80026,272.5646 689.04346,269.07852 682.82936,269.07852 L 668.26686,269.07852 z M 708.54806,269.07852 L 708.54806,282.23477 C 710.02766,282.30531 711.55176,282.38437 713.04806,282.45352 L 713.04806,269.07852 L 708.54806,269.07852 z M 772.32936,269.07852 L 765.54806,284.48477 C 767.07436,284.53305 768.60386,284.56281 770.14186,284.60977 L 774.26686,274.85977 L 774.36066,274.85977 L 778.39186,284.85977 C 780.04456,284.90706 781.66406,284.97025 783.32936,285.01602 L 776.54806,269.07852 L 772.32936,269.07852 z M 797.64186,269.07852 L 797.64186,285.35977 C 799.14336,285.39632 800.63116,285.44944 802.14186,285.48477 L 802.14186,269.07852 L 797.64186,269.07852 z M 839.20436,269.07852 L 839.20436,286.23477 C 846.43346,286.34997 853.75266,286.42871 861.14186,286.51602 C 862.95596,284.79077 863.95436,282.4287 863.95436,279.51602 C 863.95436,270.15809 856.21776,269.07852 848.89186,269.07852 L 839.20436,269.07852 z M 871.89186,269.07852 L 871.89186,286.64102 C 879.32466,286.71422 886.85216,286.78433 894.42306,286.82852 L 894.42306,285.10977 L 876.39186,285.10977 L 876.39186,273.26602 L 895.70436,273.26602 L 895.70436,269.07852 L 871.89186,269.07852 z M 985.82936,269.07852 L 985.82936,286.60977 C 993.29216,286.53427 1000.6463,286.46362 1007.9544,286.35977 C 1009.6635,284.64908 1010.6107,282.3386 1010.6107,279.51602 C 1010.6107,270.15809 1002.8428,269.07852 995.51686,269.07852 L 985.82936,269.07852 z M 1017.8294,269.07852 L 1017.8294,286.20352 C 1019.3309,286.17937 1020.8352,286.16635 1022.3294,286.14102 L 1022.3294,273.26602 L 1030.8919,273.26602 C 1038.8586,273.26601 1045.0402,276.97636 1045.9857,285.64102 C 1047.5905,285.6062 1049.2032,285.58346 1050.7981,285.54727 C 1049.5767,273.45548 1039.3718,269.07852 1032.3919,269.07852 L 1017.8294,269.07852 z M 1097.5169,269.07852 L 1107.2357,283.92227 C 1108.9623,283.86047 1110.6511,283.79829 1112.3607,283.73477 L 1103.2357,269.07852 L 1097.5169,269.07852 z M 1124.8607,269.07852 L 1115.5481,283.60977 C 1117.3189,283.54245 1119.1089,283.49142 1120.8607,283.42227 L 1130.2357,269.07852 L 1124.8607,269.07852 z M 1160.1107,269.07852 L 1160.1107,273.26602 L 1172.6107,273.26602 L 1172.6107,280.92227 C 1174.1056,280.83721 1175.6373,280.75885 1177.1107,280.67227 L 1177.1107,273.26602 L 1189.6419,273.26602 L 1189.6419,269.07852 L 1160.1107,269.07852 z M 1194.9231,269.07852 L 1194.9231,279.57852 C 1196.4281,279.47738 1197.9458,279.36886 1199.4231,279.26602 L 1199.4231,273.26602 L 1218.7357,273.26602 L 1218.7357,269.07852 L 1194.9231,269.07852 z M 1226.6731,269.07852 L 1226.6731,277.14102 C 1228.2024,277.00635 1229.687,276.84032 1231.1731,276.70352 L 1231.1731,275.17227 L 1231.2669,275.17227 L 1231.8919,276.64102 C 1233.4296,276.49847 1234.964,276.37956 1236.4544,276.23477 L 1233.3607,269.07852 L 1226.6731,269.07852 z M 1259.2357,269.07852 L 1257.1107,273.95352 C 1260.1566,273.5718 1263.0366,273.19059 1265.7669,272.79727 L 1265.7669,269.07852 L 1259.2357,269.07852 z M 843.70436,273.26602 L 850.01686,273.26602 C 854.40166,273.26601 859.14186,274.06168 859.14186,279.51602 C 859.14186,285.77248 852.67746,285.76602 847.70436,285.76602 L 843.70436,285.76602 L 843.70436,273.26602 z M 990.32936,273.26602 L 996.64186,273.26602 C 1001.0268,273.26601 1005.7981,274.06168 1005.7981,279.51602 C 1005.7982,285.77248 999.30246,285.76602 994.32936,285.76602 L 990.32936,285.76602 L 990.32936,273.26602 z"
         style="opacity:0.3;fill:#ffffff;fill-opacity:1;stroke:#ffffff;stroke-width:0.37011781;stroke-miterlimit:4;stroke-dasharray:none;stroke-opacity:1" />
      <path
         id="path2430"
         d="M 176.92311,15.828521 C 153.24615,15.828511 130.73942,20.953921 110.48561,30.141021 L 110.48561,96.984771 C 128.50394,81.983731 151.66546,72.953521 176.92311,72.953521 C 184.38206,72.953521 191.65824,73.738501 198.67311,75.234771 C 213.07363,65.830201 227.98097,57.138221 243.36061,49.234771 L 243.36061,30.172271 C 223.09727,20.974721 200.61432,15.828521 176.92311,15.828521 z"
         style="opacity:0.12000002;fill:#ffffff;fill-opacity:1;stroke:#ffffff;stroke-width:1;stroke-miterlimit:4;stroke-dasharray:none;stroke-opacity:1" />
      <path
         id="path2433"
         d="M 42.298114,98.359771 C 33.100564,118.62309 27.954364,141.10607 27.954364,164.79727 C 27.954364,188.4742 33.079754,210.98096 42.266864,231.23477 L 46.485614,231.23477 C 58.338944,212.06114 71.471314,193.75481 85.735614,176.42227 C 85.308644,172.59977 85.079364,168.7331 85.079364,164.79727 C 85.079364,139.53959 94.109574,116.37809 109.11061,98.359771 L 42.298114,98.359771 z"
         style="opacity:0.12000002;fill:#ffffff;fill-opacity:1;stroke:#ffffff;stroke-width:1;stroke-miterlimit:4;stroke-dasharray:none;stroke-opacity:1" />
    </g>
  </g>
</svg>
